HIERARCHY
ROOT joint_Root
{
  OFFSET 0 0 0
  CHANNELS 6 Xposition Yposition Zposition Zrotation Xrotation Yrotation
  JOINT Hips
  {
    OFFSET 0 93.9241 -3
    CHANNELS 6 Xposition Yposition Zposition Zrotation Xrotation Yrotation
    JOINT Spine
    {
      OFFSET 15.7357 0 0
      CHANNELS 6 Xposition Yposition Zposition Zrotation Xrotation Yrotation
      JOINT Chest
      {
        OFFSET 8.98455 -0.406207 0
        CHANNELS 6 Xposition Yposition Zposition Zrotation Xrotation Yrotation
        JOINT Neck
        {
          OFFSET 16.3773 0 0
          CHANNELS 6 Xposition Yposition Zposition Zrotation Xrotation Yrotation
          JOINT Head
          {
            OFFSET 6.45672 0 0
            CHANNELS 6 Xposition Yposition Zposition Zrotation Xrotation Yrotation
            End Site
            {
              OFFSET 0 0 0
            }
          }
        }
        JOINT Shoulder_L
        {
          OFFSET 12.9942 -0.242716 4.98039
          CHANNELS 6 Xposition Yposition Zposition Zrotation Xrotation Yrotation
          JOINT UpperArm_L
          {
            OFFSET 5.34809 0 0
            CHANNELS 6 Xposition Yposition Zposition Zrotation Xrotation Yrotation
            JOINT LowerArm_L
            {
              OFFSET 24.3286 1.87007e-05 0
              CHANNELS 6 Xposition Yposition Zposition Zrotation Xrotation Yrotation
              JOINT Hand_L
              {
                OFFSET 22.2916 0 0
                CHANNELS 6 Xposition Yposition Zposition Zrotation Xrotation Yrotation
                End Site
                {
                  OFFSET 0 0 0
                }
              }
            }
          }
        }
        JOINT Shoulder_R
        {
          OFFSET 12.9945 -0.242716 -4.98039
          CHANNELS 6 Xposition Yposition Zposition Zrotation Xrotation Yrotation
          JOINT UpperArm_R
          {
            OFFSET -5.34813 0 0
            CHANNELS 6 Xposition Yposition Zposition Zrotation Xrotation Yrotation
            JOINT LowerArm_R
            {
              OFFSET -24.3289 0.000322201 0
              CHANNELS 6 Xposition Yposition Zposition Zrotation Xrotation Yrotation
              JOINT Hand_R
              {
                OFFSET -22.2915 -0.000108084 0
                CHANNELS 6 Xposition Yposition Zposition Zrotation Xrotation Yrotation
                End Site
                {
                  OFFSET 0 0 0
                }
              }
            }
          }
        }
      }
    }
    JOINT UpperLeg_L
    {
      OFFSET -2.19248 -6.46944 0
      CHANNELS 6 Xposition Yposition Zposition Zrotation Xrotation Yrotation
      JOINT LowerLeg_L
      {
        OFFSET 39.0811 0 -1.23785e-05
        CHANNELS 6 Xposition Yposition Zposition Zrotation Xrotation Yrotation
        JOINT Foot_L
        {
          OFFSET 40.9854 0 -1.26872e-05
          CHANNELS 6 Xposition Yposition Zposition Zrotation Xrotation Yrotation
          JOINT Toes_L
          {
            OFFSET 11.7543 0 0
            CHANNELS 6 Xposition Yposition Zposition Zrotation Xrotation Yrotation
            End Site
            {
              OFFSET 0 0 0
            }
          }
        }
      }
    }
    JOINT UpperLeg_R
    {
      OFFSET -2.19251 6.46944 0
      CHANNELS 6 Xposition Yposition Zposition Zrotation Xrotation Yrotation
      JOINT LowerLeg_R
      {
        OFFSET -39.0811 -0.00228153 -0.0401928
        CHANNELS 6 Xposition Yposition Zposition Zrotation Xrotation Yrotation
        JOINT Foot_R
        {
          OFFSET -40.9854 0 0
          CHANNELS 6 Xposition Yposition Zposition Zrotation Xrotation Yrotation
          JOINT Toes_R
          {
            OFFSET -11.7543 0 0
            CHANNELS 6 Xposition Yposition Zposition Zrotation Xrotation Yrotation
            End Site
            {
              OFFSET 0 0 0
            }
          }
        }
      }
    }
  }
}
MOTION
Frames:	4
Frame Time:	0.0333333
0 0 0 0 0 -0 -3.22576 91.1341 39.662 85.7241 -1.05224 -1.118 15.7357 5.1072e-06 -5.51765e-07 97.2649 82.2933 -96.2887 8.98455 -0.406207 -4.3199e-07 7.51107 1.93943 1.82306 16.3773 -1.3905e-06 -6.99897e-07 -5.9389 -1.31011 -1.66543 6.45672 -1.25837e-06 -1.02172e-07 3.36129 -4.76615 -0.507327 12.9942 -0.242716 4.98039 -89.7835 -2.19334 -99.3617 5.34809 -7.22636e-06 -6.2814e-07 -81.472 -6.33981 17.8132 24.3286 1.87007e-05 4.90208e-06 -1.37684 -3.5425 -21.2556 22.2916 -9.88446e-07 4.63217e-06 23.7171 5.55522 -8.95514 12.9945 -0.242716 -4.98039 89.7925 3.59542 -101.694 -5.34813 -1.25947e-06 -3.79883e-06 -71.2699 3.50582 8.34546 -24.3289 0.000322201 -8.65921e-06 -5.66288 -10.6661 -28.1752 -22.2915 -0.000108084 -4.47941e-06 29.8041 5.66345 -25.7705 -2.19248 -6.46944 -1.22534e-07 -176.269 2.39934 -22.2519 39.0811 -6.73843e-06 -1.23785e-05 -0.167411 0.0802359 62.6877 40.9854 -6.48686e-06 -1.26872e-05 -0.467864 -7.87864 -45.9735 11.7543 -2.30145e-07 3.05095e-06 0.47647 -0.581978 -22.059 -2.19251 6.46944 -1.45247e-06 -170.805 -1.39942 171.874 -39.0811 -0.00228153 -0.0401928 -0.0197377 0.102139 24.1234 -40.9854 7.72618e-06 5.99936e-06 2.25243 -12.3885 -67.4722 -11.7543 -5.6619e-06 -5.58687e-06 -0.117439 0.0890468 -16.5716 
0 0 0 0 0 -0 -3.11346 91.1439 42.209 86.3804 -0.372524 -0.894507 15.7357 5.1072e-06 -5.51765e-07 98.7886 82.0857 -97.9996 8.98455 -0.406207 -4.3199e-07 7.86583 2.40906 1.41104 16.3773 -1.3905e-06 -6.99897e-07 -5.94565 -1.73581 -1.70814 6.45672 -1.25837e-06 -1.02172e-07 3.29713 -5.60967 -0.419662 12.9942 -0.242716 4.98039 -89.7878 -2.01971 -98.9972 5.34809 -7.22636e-06 -6.2814e-07 -80.8452 -6.75855 19.5382 24.3286 1.87007e-05 4.90208e-06 -1.31135 -3.30397 -21.6636 22.2916 -9.88446e-07 4.63217e-06 23.6552 5.55826 -9.10206 12.9945 -0.242716 -4.98039 89.7869 3.75138 -101.747 -5.34813 -1.25947e-06 -3.79883e-06 -70.0424 4.28222 6.58019 -24.3289 0.000322201 -8.65921e-06 -6.02617 -10.5577 -29.944 -22.2915 -0.000108084 -4.47941e-06 30.2091 5.66323 -25.7962 -2.19248 -6.46944 -1.22533e-07 -176.958 3.00735 -25.8199 39.0811 -6.73843e-06 -1.23785e-05 -0.17241 0.0962529 59.0295 40.9854 -6.48686e-06 -1.26872e-05 0.66436 -10.5125 -49.575 11.7543 -2.30145e-07 3.05095e-06 0.49298 -0.60432 -22.2613 -2.19251 6.46944 -1.45247e-06 -171.442 -1.11727 174.641 -39.0811 -0.00228153 -0.0401928 -0.0438001 0.160175 22.663 -40.9854 7.72618e-06 5.99936e-06 1.80854 -13.1013 -68.6958 -11.7543 -5.6619e-06 -5.58687e-06 -0.106477 0.0799938 -16.572 
0 0 0 0 0 -0 -3.0002 91.1053 44.6823 86.7945 0.174654 -0.700811 15.7357 5.1072e-06 -5.51765e-07 100.562 81.821 -99.8971 8.98455 -0.406207 -4.3199e-07 8.30617 2.98775 1.11127 16.3773 -1.3905e-06 -6.99897e-07 -6.06279 -2.20613 -1.53417 6.45672 -1.25837e-06 -1.02172e-07 2.90596 -6.47008 -0.462794 12.9942 -0.242716 4.98039 -89.8073 -1.72522 -98.6234 5.34809 -7.22636e-06 -6.2814e-07 -79.8297 -7.27404 21.1567 24.3286 1.87007e-05 4.90208e-06 -1.22987 -2.94021 -22.7125 22.2916 -9.88446e-07 4.63217e-06 23.5717 5.55775 -9.07765 12.9945 -0.242716 -4.98039 89.7885 3.8311 -101.837 -5.34813 -1.25947e-06 -3.79883e-06 -68.7564 5.14992 4.59999 -24.3289 0.000322201 -8.65921e-06 -6.05024 -10.161 -30.9929 -22.2915 -0.000108084 -4.47941e-06 30.5013 5.66342 -25.7753 -2.19248 -6.46944 -1.22534e-07 -177.208 2.7818 -28.062 39.0811 -6.73843e-06 -1.23785e-05 -0.135766 0.098095 51.6929 40.9854 -6.48686e-06 -1.26872e-05 1.01923 -11.769 -51.9288 11.7543 -2.30145e-07 3.05095e-06 0.475501 -0.580669 -22.0472 -2.19251 6.46944 -1.45247e-06 -171.883 -0.450972 177.593 -39.0811 -0.00228153 -0.0401928 -0.0612772 0.213474 20.6939 -40.9854 7.72618e-06 5.99936e-06 1.53342 -13.2866 -69.6057 -11.7543 -5.6619e-06 -5.58687e-06 -0.0924807 0.0688829 -16.5724 
0 0 0 0 0 -0 -2.92247 91.0258 47.1871 86.8626 0.545727 -0.650271 15.7357 5.1072e-06 -5.51765e-07 102.647 81.6406 -101.979 8.98455 -0.406207 -4.3199e-07 8.53906 3.64738 1.06218 16.3773 -1.3905e-06 -6.99897e-07 -6.04856 -2.52796 -1.37125 6.45672 -1.25837e-06 -1.02172e-07 2.48387 -7.40455 -0.584534 12.9942 -0.242716 4.98039 -89.8421 -1.31661 -98.1584 5.34809 -7.22636e-06 -6.2814e-07 -78.7252 -7.11747 22.2236 24.3286 1.87007e-05 4.90208e-06 -1.18304 -2.7899 -22.9911 22.2916 -9.88446e-07 4.63217e-06 23.4927 5.55951 -9.16332 12.9945 -0.242716 -4.98039 89.7876 4.1667 -102.078 -5.34813 -1.25947e-06 -3.79883e-06 -67.4009 5.33094 3.22193 -24.3289 0.000322201 -8.65921e-06 -6.26892 -10.0927 -32.0776 -22.2915 -0.000108084 -4.47941e-06 30.9143 5.66278 -25.8536 -2.19248 -6.46944 -1.22533e-07 -177.052 1.71917 -28.297 39.0811 -6.73843e-06 -1.23785e-05 -0.0787248 0.0804785 39.9305 40.9854 -6.48686e-06 -1.26872e-05 0.846208 -10.5594 -52.2663 11.7543 -2.30145e-07 3.05095e-06 0.488339 -0.598008 -22.2043 -2.19251 6.46944 -1.45247e-06 -171.539 0.58217 -179.427 -39.0811 -0.00228153 -0.0401928 0.0495121 -0.102681 18.3242 -40.9854 7.72618e-06 5.99936e-06 5.40063 -13.8315 -69.5471 -11.7543 -5.6619e-06 -5.58687e-06 -0.0843625 -0.0663812 -16.5226 
